# xmcd
#
# Track frame offsets:
#	150
#	8745
#	18581
#	28056
#	43162
#	54706
#	75614
#	89831
#	100217
#	113023
#	123318
#	130015
#	145550
#	161872
#	177620
#	192077
#	210041
#	235076
#	247496
#
# Disc length: 3477 seconds
#
# Revision: 0
# Processed by: cddbd v1.4PL0 Copyright (c) Steve Scherf et al.
# Submitted via: dBpowerAMP V4.0
#
DISCID=050d9313
DTITLE=AC&M - Xin chao
DYEAR=1900
DGENRE=
TTITLE0=Hi
TTITLE1=Ly con sao
TTITLE2=Ly cay da
TTITLE3=Co la
TTITLE4=Thang bom
TTITLE5=Dem nghe mua
TTITLE6=Ben bo
TTITLE7=Toi ru em ngu
TTITLE8=Scarborough fair
TTITLE9=Some thing
TTITLE10=L'alphabet
TTITLE11=Vi mot the gioi ngay mai
TTITLE12=Bai ca song
TTITLE13=Chuyen chang co don
TTITLE14=Banh xe lang tu
TTITLE15=Mot ngay vang em
TTITLE16=Tieng dan chai
TTITLE17=TInh xua
TTITLE18=Trong com
EXTD=
EXTT0=
EXTT1=
EXTT2=
EXTT3=
EXTT4=
EXTT5=
EXTT6=
EXTT7=
EXTT8=
EXTT9=
EXTT10=
EXTT11=
EXTT12=
EXTT13=
EXTT14=
EXTT15=
EXTT16=
EXTT17=
EXTT18=
PLAYORDER=
